<svg width="40" height="40" viewBox="0 0 40 40" fill="none" xmlns="http://www.w3.org/2000/svg">
<g opacity="0.8">
<circle cx="20" cy="20" r="20" fill="url(#paint0_linear_13_686)"/>
<path d="M20.2157 8.89959C15.5764 8.89959 11.1709 8.48722 9.48816 12.8024C8.79309 14.5847 8.89403 16.8993 8.89403 20.2136C8.89403 23.1219 8.80076 25.8553 9.48816 27.6235C11.1671 31.9412 15.6083 31.5276 20.2131 31.5276C24.6557 31.5276 29.2362 31.9897 30.9394 27.6235C31.6358 25.8233 31.5335 23.5432 31.5335 20.2136C31.5335 15.7937 31.7776 12.9403 29.6323 10.798C27.4602 8.62766 24.5228 8.89959 20.2106 8.89959H20.2157ZM19.2012 10.9385C28.8785 10.9231 30.1102 9.84817 29.4305 24.7816C29.189 30.0632 25.1642 29.4836 20.217 29.4836C11.1964 29.4836 10.9371 29.2257 10.9371 20.2085C10.9371 11.0866 11.6526 10.9436 19.2012 10.9359V10.9385ZM26.2592 12.8165C25.5092 12.8165 24.901 13.4242 24.901 14.1736C24.901 14.923 25.5092 15.5307 26.2592 15.5307C27.0092 15.5307 27.6174 14.923 27.6174 14.1736C27.6174 13.4242 27.0092 12.8165 26.2592 12.8165ZM20.2157 14.4034C17.0049 14.4034 14.4022 17.0053 14.4022 20.2136C14.4022 23.4219 17.0049 26.0225 20.2157 26.0225C23.4266 26.0225 26.0279 23.4219 26.0279 20.2136C26.0279 17.0053 23.4266 14.4034 20.2157 14.4034ZM20.2157 16.4423C25.2051 16.4423 25.2115 23.9849 20.2157 23.9849C15.2276 23.9849 15.2199 16.4423 20.2157 16.4423Z" fill="white"/>
</g>
<defs>
<linearGradient id="paint0_linear_13_686" x1="2.68567" y1="37.394" x2="39.7484" y2="5.31035" gradientUnits="userSpaceOnUse">
<stop stop-color="#FFDD55"/>
<stop offset="0.5" stop-color="#FF543E"/>
<stop offset="1" stop-color="#C837AB"/>
</linearGradient>
</defs>
</svg>
