<svg width="31" height="31" viewBox="0 0 31 31" fill="none" xmlns="http://www.w3.org/2000/svg">
<circle cx="15.3916" cy="15.3916" r="15.3916" fill="white"/>
<path fill-rule="evenodd" clip-rule="evenodd" d="M17.1115 30.6881C24.8025 29.833 30.7831 23.3107 30.7831 15.3916C30.7831 6.89104 23.8921 0 15.3916 0C15.3901 0 15.3887 -3.99203e-07 15.3872 0V0.000480986H15.3961C23.8812 0.000480986 30.7831 6.90431 30.7831 15.3918C30.7831 23.2989 24.7921 29.8323 17.1115 30.6881ZM15.4695 30.7829C15.445 30.7831 15.4206 30.7831 15.3961 30.7831C12.2661 30.7831 9.3624 29.8512 6.92909 28.2406L6.9195 28.2437C9.34948 29.8487 12.2614 30.7831 15.3916 30.7831C15.4176 30.7831 15.4435 30.7831 15.4695 30.7829ZM0.000356066 15.2858C0.000119096 15.321 2.81927e-07 15.3562 5.01132e-10 15.3914C5.01132e-10 15.3914 0 15.3914 0 15.3913C0 15.3561 0.000118845 15.3209 0.000356066 15.2858ZM10.1132 7.05799C10.5653 7.07627 10.7916 7.10344 11.0901 7.81819C11.1883 8.05523 11.3239 8.3842 11.4722 8.74405C11.8842 9.74378 12.3944 10.9818 12.4744 11.1485C12.5828 11.3748 12.6915 11.6827 12.5376 11.9811C12.403 12.2674 12.2842 12.4047 12.0862 12.6336C12.0713 12.6508 12.0559 12.6686 12.04 12.687C11.943 12.7997 11.8476 12.9007 11.7524 13.0015C11.626 13.1355 11.4999 13.269 11.3708 13.4291C11.3672 13.4333 11.3637 13.4374 11.3601 13.4416C11.1549 13.6822 10.932 13.9435 11.1899 14.3882C11.452 14.8317 12.3565 16.3064 13.6865 17.4915C15.265 18.8958 16.5687 19.423 17.1564 19.6607C17.2086 19.6818 17.2552 19.7006 17.2958 19.7175C17.6666 19.8715 18.1101 19.8351 18.3814 19.5456C18.6752 19.2288 19.0282 18.7334 19.3956 18.2177C19.4582 18.1298 19.5213 18.0413 19.5846 17.953C19.8919 17.5187 20.2808 17.4644 20.6879 17.618C21.104 17.7628 23.3023 18.8486 23.7545 19.0749C23.8469 19.1213 23.9329 19.1626 24.0123 19.2008C24.3208 19.3492 24.5275 19.4486 24.6137 19.5997C24.7224 19.7897 24.7224 20.6855 24.3516 21.7353C23.9805 22.7846 22.5061 23.6537 21.3301 23.9069C20.5251 24.0786 19.4756 24.2145 15.9387 22.7487C11.7502 21.0138 8.94247 16.9434 8.37041 16.1141C8.32473 16.0479 8.2933 16.0023 8.27657 15.9803C8.27024 15.9716 8.26273 15.9613 8.25411 15.9495C7.96695 15.5569 6.4493 13.4817 6.4493 11.338C6.4493 9.19242 7.50898 8.1151 7.98363 7.63254C7.99736 7.61858 8.01061 7.60511 8.02333 7.59213C8.39441 7.21215 9.00935 7.04019 9.5976 7.04019C9.78783 7.04019 9.9593 7.04909 10.1132 7.05799Z" fill="white"/>
<path fill-rule="evenodd" clip-rule="evenodd" d="M11.0901 7.81819C10.7916 7.10344 10.5653 7.07627 10.1132 7.05799C9.9593 7.04909 9.78783 7.04019 9.5976 7.04019C9.00935 7.04019 8.39441 7.21215 8.02333 7.59213C7.5712 8.05363 6.4493 9.13032 6.4493 11.338C6.4493 13.546 8.0594 15.6813 8.27657 15.9803C8.50287 16.2785 11.4157 20.8753 15.9387 22.7487C19.4756 24.2145 20.5251 24.0786 21.3301 23.9069C22.5061 23.6537 23.9805 22.7846 24.3516 21.7353C24.7224 20.6855 24.7224 19.7897 24.6137 19.5997C24.5053 19.4097 24.2066 19.3015 23.7545 19.0749C23.3023 18.8486 21.104 17.7628 20.6879 17.618C20.2808 17.4644 19.8919 17.5187 19.5846 17.953C19.1502 18.5593 18.7253 19.1748 18.3814 19.5456C18.1101 19.8351 17.6666 19.8715 17.2958 19.7175C16.7982 19.5098 15.4053 19.0206 13.6865 17.4915C12.3565 16.3064 11.452 14.8317 11.1899 14.3882C10.9275 13.9359 11.1627 13.6732 11.3708 13.4291C11.5971 13.1485 11.814 12.9496 12.04 12.687C12.2663 12.4246 12.3928 12.289 12.5376 11.9811C12.6915 11.6827 12.5828 11.3748 12.4744 11.1485C12.3657 10.9218 11.4612 8.71378 11.0901 7.81819ZM15.387 0C6.90191 0 0 6.90383 0 15.3913C0 18.7573 1.08559 21.8791 2.93089 24.4127L1.01296 30.1314L6.92909 28.2406C9.36239 29.8512 12.2661 30.7831 15.3961 30.7831C23.8812 30.7831 30.7831 23.8788 30.7831 15.3918C30.7831 6.90432 23.8812 0.000480986 15.3961 0.000480986H15.3872V0H15.387Z" fill="#67C15E"/>
</svg>
