<svg width="59" height="89" viewBox="0 0 59 89" fill="none" xmlns="http://www.w3.org/2000/svg">
<path d="M40.5186 25.045C40.5181 23.0272 39.8714 21.0549 38.6603 19.3774C37.4492 17.7 35.7282 16.3927 33.7147 15.6209C31.7013 14.8491 29.4858 14.6474 27.3486 15.0413C25.2114 15.4353 23.2483 16.4072 21.7076 17.8341C20.1668 19.261 19.1177 21.079 18.6927 23.058C18.2678 25.037 18.4862 27.0883 19.3202 28.9524C20.1543 30.8165 21.5666 32.4098 23.3785 33.5307C25.1905 34.6517 27.3207 35.25 29.4999 35.25C32.4216 35.2467 35.2226 34.1704 37.2883 32.2572C39.354 30.344 40.5157 27.7503 40.5186 25.045ZM22.4286 25.045C22.4286 23.7476 22.8442 22.4794 23.6229 21.4008C24.4016 20.3222 25.5083 19.4817 26.803 18.9857C28.0977 18.4897 29.5222 18.3604 30.8963 18.6142C32.2704 18.8681 33.5323 19.4936 34.5223 20.4117C35.5123 21.3298 36.186 22.4991 36.458 23.7718C36.7301 25.0445 36.5883 26.3633 36.0506 27.5614C35.5129 28.7594 34.6035 29.7829 33.4374 30.5022C32.2714 31.2215 30.9011 31.6045 29.4999 31.6025C27.6223 31.6005 25.8222 30.909 24.4945 29.6796C23.1668 28.4503 22.4199 26.7835 22.4178 25.045H22.4286Z" fill="black"/>
<path d="M57.7285 85.3175L39.9598 63.8775V53.0125C39.9598 52.7732 39.9088 52.5362 39.8099 52.3151C39.711 52.0939 39.566 51.893 39.3833 51.7238C39.2005 51.5546 38.9835 51.4203 38.7447 51.3287C38.5059 51.2371 38.2499 51.19 37.9915 51.19H37.7215V48.4025H40.7806C41.3026 48.4025 41.8032 48.2105 42.1724 47.8687C42.5415 47.5269 42.7489 47.0634 42.7489 46.58C42.7489 46.0966 42.5415 45.6331 42.1724 45.2913C41.8032 44.9495 41.3026 44.7575 40.7806 44.7575H37.7242V41.9725H44.917C45.439 41.9725 45.9396 41.7805 46.3088 41.4387C46.6779 41.0969 46.8853 40.6334 46.8853 40.15V9.94C46.8853 9.70067 46.8343 9.46368 46.7354 9.24256C46.6365 9.02144 46.4915 8.82053 46.3088 8.6513C46.126 8.48206 45.909 8.34782 45.6702 8.25623C45.4314 8.16464 45.1754 8.1175 44.917 8.1175H41.2693V5.6725C41.2678 4.36738 40.7073 3.11609 39.7106 2.19323C38.7139 1.27037 37.3625 0.751324 35.953 0.75H23.047C21.6374 0.751324 20.286 1.27037 19.2893 2.19323C18.2927 3.11609 17.7321 4.36738 17.7307 5.6725V8.1175H14.0803C13.5584 8.11816 13.0582 8.31039 12.6892 8.65203C12.3203 8.99367 12.1127 9.45685 12.112 9.94V40.15C12.1127 40.6332 12.3203 41.0963 12.6892 41.438C13.0582 41.7796 13.5584 41.9718 14.0803 41.9725H21.2758V51.19H21.0058C20.7473 51.19 20.4913 51.2371 20.2525 51.3287C20.0137 51.4203 19.7967 51.5546 19.614 51.7238C19.4312 51.893 19.2862 52.0939 19.1873 52.3151C19.0884 52.5362 19.0375 52.7732 19.0375 53.0125V63.8775L1.26875 85.3175C0.963376 85.7016 0.832755 86.1812 0.90492 86.6534C0.977085 87.1256 1.24629 87.5528 1.65476 87.8433C2.06323 88.1339 2.57842 88.2646 3.08978 88.2074C3.60113 88.1502 4.06792 87.9097 4.38995 87.5375L21.9751 66.3175H27.5263V80.3575C27.5263 80.8409 27.7336 81.3044 28.1028 81.6462C28.4719 81.988 28.9725 82.18 29.4946 82.18C30.0166 82.18 30.5172 81.988 30.8864 81.6462C31.2555 81.3044 31.4629 80.8409 31.4629 80.3575V66.3175H37.0141L54.61 87.5375C54.9279 87.9211 55.3974 88.172 55.9151 88.235C56.4329 88.2981 56.9565 88.1681 57.3707 87.8737C57.785 87.5794 58.056 87.1447 58.1241 86.6653C58.1922 86.1859 58.0518 85.7011 57.7339 85.3175H57.7285ZM21.67 5.6725C21.6707 5.33389 21.8163 5.00934 22.0748 4.7699C22.3334 4.53047 22.684 4.39566 23.0497 4.395H35.9557C36.3204 4.39698 36.6696 4.53237 36.927 4.77166C37.1844 5.01095 37.3293 5.33475 37.33 5.6725V8.1175H21.67V5.6725ZM16.054 11.765H42.9514V38.325H16.0513L16.054 11.765ZM25.2151 41.9725H33.7903V51.19H25.2124L25.2151 41.9725ZM22.9795 62.6725V54.835H36.0259V62.6725H22.9795Z" fill="black"/>
</svg>
