<svg width="31" height="31" viewBox="0 0 31 31" fill="none" xmlns="http://www.w3.org/2000/svg">
<g clip-path="url(#clip0_11_358)">
<path d="M0 15.5C0 24.0605 6.93955 31 15.5 31C24.0605 31 31.0001 24.0605 31.0001 15.5C31.0001 6.93949 24.0605 -6.10352e-05 15.5 -6.10352e-05C6.93955 -6.10352e-05 0 6.93949 0 15.5Z" fill="url(#paint0_linear_11_358)"/>
<path d="M10.4921 16.6326L12.3311 21.7227C12.3311 21.7227 12.5609 22.1987 12.8072 22.1987C13.0535 22.1987 16.7151 18.3894 16.7151 18.3894L20.7871 10.5244L10.5577 15.3189L10.4921 16.6326Z" fill="#C8DAEA"/>
<path d="M12.9303 17.9381L12.5772 21.6899C12.5772 21.6899 12.4295 22.8392 13.5788 21.6899C14.7282 20.5405 15.8283 19.6538 15.8283 19.6538" fill="#A9C6D8"/>
<path d="M10.5252 16.8147L6.74276 15.5822C6.74276 15.5822 6.29129 15.399 6.43631 14.9829C6.46625 14.8972 6.52655 14.8243 6.70716 14.6983C7.54548 14.1142 22.2209 8.83928 22.2209 8.83928C22.2209 8.83928 22.6353 8.69978 22.8803 8.79252C22.9922 8.83495 23.0636 8.88289 23.1238 9.05786C23.1457 9.12157 23.1583 9.257 23.1566 9.39177C23.1553 9.48897 23.1435 9.57895 23.1348 9.72016C23.0455 11.1624 20.3711 21.9255 20.3711 21.9255C20.3711 21.9255 20.2111 22.5554 19.6377 22.5768C19.4286 22.5847 19.1748 22.5422 18.8714 22.2812C17.7463 21.3134 13.8573 18.6998 12.9981 18.1251C12.9495 18.0928 12.9358 18.0506 12.9275 18.0095C12.9154 17.9491 12.9801 17.8737 12.9801 17.8737C12.9801 17.8737 19.7518 11.8543 19.932 11.2227C19.9459 11.1737 19.8935 11.1496 19.8224 11.1707C19.3727 11.3362 11.5759 16.2595 10.7155 16.8033C10.6652 16.8351 10.5241 16.8146 10.5241 16.8146" fill="white"/>
</g>
<defs>
<linearGradient id="paint0_linear_11_358" x1="15.5" y1="30.9999" x2="15.5" y2="-0.000192391" gradientUnits="userSpaceOnUse">
<stop stop-color="#1D93D2"/>
<stop offset="1" stop-color="#38B0E3"/>
</linearGradient>
<clipPath id="clip0_11_358">
<rect width="31" height="31" fill="white"/>
</clipPath>
</defs>
</svg>
